<mxfile host="app.diagrams.net" agent="Mozilla/5.0 (Macintosh; Intel Mac OS X 10_15_7) AppleWebKit/537.36 (KHTML, like Gecko) Chrome/131.0.0.0 Safari/537.36" version="26.0.11">
  <diagram name="第 1 页" id="yakwvydarUJN9PNss9ac">
    <mxGraphModel dx="1242" dy="803" grid="1" gridSize="10" guides="1" tooltips="1" connect="1" arrows="1" fold="1" page="1" pageScale="1" pageWidth="827" pageHeight="1169" math="0" shadow="0">
      <root>
        <mxCell id="0" />
        <mxCell id="1" parent="0" />
        <mxCell id="azY0l1WAuqeX0dvuz0EE-33" value="" style="group;fillColor=#f5f5f5;fontColor=#333333;strokeColor=#666666;" vertex="1" connectable="0" parent="1">
          <mxGeometry x="79" y="330" width="440" height="395" as="geometry" />
        </mxCell>
        <mxCell id="azY0l1WAuqeX0dvuz0EE-2" value="&lt;b&gt;OVS&lt;/b&gt;&lt;div&gt;&lt;b&gt;Bridge&lt;/b&gt;&lt;/div&gt;" style="rounded=1;whiteSpace=wrap;html=1;" vertex="1" parent="azY0l1WAuqeX0dvuz0EE-33">
          <mxGeometry x="10" y="160" width="110" height="60" as="geometry" />
        </mxCell>
        <mxCell id="azY0l1WAuqeX0dvuz0EE-3" value="vlan" style="rounded=1;whiteSpace=wrap;html=1;fontStyle=1" vertex="1" parent="azY0l1WAuqeX0dvuz0EE-33">
          <mxGeometry x="231" width="80" height="40" as="geometry" />
        </mxCell>
        <mxCell id="azY0l1WAuqeX0dvuz0EE-6" value="tap" style="rounded=1;whiteSpace=wrap;html=1;fontStyle=1" vertex="1" parent="azY0l1WAuqeX0dvuz0EE-33">
          <mxGeometry x="231" y="49" width="80" height="37" as="geometry" />
        </mxCell>
        <mxCell id="azY0l1WAuqeX0dvuz0EE-7" value="gre" style="rounded=1;whiteSpace=wrap;html=1;fontStyle=1" vertex="1" parent="azY0l1WAuqeX0dvuz0EE-33">
          <mxGeometry x="231" y="98" width="80" height="40" as="geometry" />
        </mxCell>
        <mxCell id="azY0l1WAuqeX0dvuz0EE-8" value="gretap" style="rounded=1;whiteSpace=wrap;html=1;fontStyle=1" vertex="1" parent="azY0l1WAuqeX0dvuz0EE-33">
          <mxGeometry x="231" y="151" width="80" height="40" as="geometry" />
        </mxCell>
        <mxCell id="azY0l1WAuqeX0dvuz0EE-9" value="geneve" style="rounded=1;whiteSpace=wrap;html=1;fontStyle=1" vertex="1" parent="azY0l1WAuqeX0dvuz0EE-33">
          <mxGeometry x="231" y="254.5" width="80" height="40" as="geometry" />
        </mxCell>
        <mxCell id="azY0l1WAuqeX0dvuz0EE-10" value="vxlan" style="rounded=1;whiteSpace=wrap;html=1;fontStyle=1" vertex="1" parent="azY0l1WAuqeX0dvuz0EE-33">
          <mxGeometry x="231" y="304.5" width="80" height="40" as="geometry" />
        </mxCell>
        <mxCell id="azY0l1WAuqeX0dvuz0EE-11" value="vxlan" style="rounded=1;whiteSpace=wrap;html=1;fontStyle=1" vertex="1" parent="azY0l1WAuqeX0dvuz0EE-33">
          <mxGeometry x="231" y="355" width="80" height="40" as="geometry" />
        </mxCell>
        <mxCell id="azY0l1WAuqeX0dvuz0EE-12" value="ipip" style="rounded=1;whiteSpace=wrap;html=1;fontStyle=1" vertex="1" parent="azY0l1WAuqeX0dvuz0EE-33">
          <mxGeometry x="231" y="204" width="80" height="40" as="geometry" />
        </mxCell>
        <mxCell id="azY0l1WAuqeX0dvuz0EE-13" value="" style="edgeStyle=orthogonalEdgeStyle;rounded=0;orthogonalLoop=1;jettySize=auto;html=1;" edge="1" parent="azY0l1WAuqeX0dvuz0EE-33">
          <mxGeometry relative="1" as="geometry">
            <mxPoint x="120" y="191" as="sourcePoint" />
            <mxPoint x="230" y="15" as="targetPoint" />
            <Array as="points">
              <mxPoint x="170" y="191" />
              <mxPoint x="170" y="15" />
            </Array>
          </mxGeometry>
        </mxCell>
        <mxCell id="azY0l1WAuqeX0dvuz0EE-15" value="" style="endArrow=classic;html=1;rounded=0;entryX=0;entryY=0.5;entryDx=0;entryDy=0;" edge="1" parent="azY0l1WAuqeX0dvuz0EE-33" target="azY0l1WAuqeX0dvuz0EE-11">
          <mxGeometry width="50" height="50" relative="1" as="geometry">
            <mxPoint x="170" y="190" as="sourcePoint" />
            <mxPoint x="130" y="380" as="targetPoint" />
            <Array as="points">
              <mxPoint x="170" y="375" />
            </Array>
          </mxGeometry>
        </mxCell>
        <mxCell id="azY0l1WAuqeX0dvuz0EE-16" value="" style="endArrow=classic;html=1;rounded=0;" edge="1" parent="azY0l1WAuqeX0dvuz0EE-33">
          <mxGeometry width="50" height="50" relative="1" as="geometry">
            <mxPoint x="170" y="118" as="sourcePoint" />
            <mxPoint x="230" y="118" as="targetPoint" />
          </mxGeometry>
        </mxCell>
        <mxCell id="azY0l1WAuqeX0dvuz0EE-18" value="" style="endArrow=classic;html=1;rounded=0;" edge="1" parent="azY0l1WAuqeX0dvuz0EE-33">
          <mxGeometry width="50" height="50" relative="1" as="geometry">
            <mxPoint x="171" y="171.5" as="sourcePoint" />
            <mxPoint x="231" y="171.5" as="targetPoint" />
          </mxGeometry>
        </mxCell>
        <mxCell id="azY0l1WAuqeX0dvuz0EE-21" value="" style="endArrow=classic;html=1;rounded=0;" edge="1" parent="azY0l1WAuqeX0dvuz0EE-33">
          <mxGeometry width="50" height="50" relative="1" as="geometry">
            <mxPoint x="171" y="69" as="sourcePoint" />
            <mxPoint x="231" y="69" as="targetPoint" />
          </mxGeometry>
        </mxCell>
        <mxCell id="azY0l1WAuqeX0dvuz0EE-22" value="" style="endArrow=classic;html=1;rounded=0;" edge="1" parent="azY0l1WAuqeX0dvuz0EE-33">
          <mxGeometry width="50" height="50" relative="1" as="geometry">
            <mxPoint x="171" y="224.5" as="sourcePoint" />
            <mxPoint x="231" y="224.5" as="targetPoint" />
          </mxGeometry>
        </mxCell>
        <mxCell id="azY0l1WAuqeX0dvuz0EE-23" value="" style="endArrow=classic;html=1;rounded=0;" edge="1" parent="azY0l1WAuqeX0dvuz0EE-33">
          <mxGeometry width="50" height="50" relative="1" as="geometry">
            <mxPoint x="171" y="275.5" as="sourcePoint" />
            <mxPoint x="231" y="275.5" as="targetPoint" />
          </mxGeometry>
        </mxCell>
        <mxCell id="azY0l1WAuqeX0dvuz0EE-24" value="" style="endArrow=classic;html=1;rounded=0;" edge="1" parent="azY0l1WAuqeX0dvuz0EE-33">
          <mxGeometry width="50" height="50" relative="1" as="geometry">
            <mxPoint x="171" y="322.5" as="sourcePoint" />
            <mxPoint x="231" y="322.5" as="targetPoint" />
          </mxGeometry>
        </mxCell>
        <mxCell id="azY0l1WAuqeX0dvuz0EE-27" value="" style="shape=curlyBracket;whiteSpace=wrap;html=1;rounded=1;flipH=1;labelPosition=right;verticalLabelPosition=middle;align=left;verticalAlign=middle;" vertex="1" parent="azY0l1WAuqeX0dvuz0EE-33">
          <mxGeometry x="340" y="111" width="30" height="269" as="geometry" />
        </mxCell>
        <mxCell id="azY0l1WAuqeX0dvuz0EE-29" value="二层" style="text;html=1;align=center;verticalAlign=middle;resizable=0;points=[];autosize=1;strokeColor=none;fillColor=none;fontStyle=1" vertex="1" parent="azY0l1WAuqeX0dvuz0EE-33">
          <mxGeometry x="390" y="19" width="50" height="30" as="geometry" />
        </mxCell>
        <mxCell id="azY0l1WAuqeX0dvuz0EE-30" value="" style="shape=curlyBracket;whiteSpace=wrap;html=1;rounded=1;flipH=1;labelPosition=right;verticalLabelPosition=middle;align=left;verticalAlign=middle;" vertex="1" parent="azY0l1WAuqeX0dvuz0EE-33">
          <mxGeometry x="339" y="8" width="20" height="62" as="geometry" />
        </mxCell>
        <mxCell id="azY0l1WAuqeX0dvuz0EE-32" value="隧道" style="text;html=1;align=center;verticalAlign=middle;resizable=0;points=[];autosize=1;strokeColor=none;fillColor=none;fontStyle=1" vertex="1" parent="azY0l1WAuqeX0dvuz0EE-33">
          <mxGeometry x="390" y="225" width="50" height="30" as="geometry" />
        </mxCell>
        <mxCell id="azY0l1WAuqeX0dvuz0EE-87" value="" style="group;fillColor=#f5f5f5;strokeColor=#666666;fontColor=#333333;" vertex="1" connectable="0" parent="1">
          <mxGeometry x="79" y="1100" width="390" height="90" as="geometry" />
        </mxCell>
        <mxCell id="azY0l1WAuqeX0dvuz0EE-50" value="UIO" style="rounded=1;whiteSpace=wrap;html=1;fontStyle=1" vertex="1" parent="azY0l1WAuqeX0dvuz0EE-87">
          <mxGeometry x="10" y="20" width="89.46" height="50" as="geometry" />
        </mxCell>
        <mxCell id="azY0l1WAuqeX0dvuz0EE-51" value="DPDK" style="rounded=1;whiteSpace=wrap;html=1;fontStyle=1" vertex="1" parent="azY0l1WAuqeX0dvuz0EE-87">
          <mxGeometry x="189.97134670487105" width="78.22349570200574" height="40" as="geometry" />
        </mxCell>
        <mxCell id="azY0l1WAuqeX0dvuz0EE-52" value="SPDK" style="rounded=1;whiteSpace=wrap;html=1;fontStyle=1" vertex="1" parent="azY0l1WAuqeX0dvuz0EE-87">
          <mxGeometry x="189.97134670487105" y="50" width="78.22349570200574" height="40" as="geometry" />
        </mxCell>
        <mxCell id="azY0l1WAuqeX0dvuz0EE-53" value="uio_pci_generic" style="text;whiteSpace=wrap;fontStyle=1" vertex="1" parent="azY0l1WAuqeX0dvuz0EE-87">
          <mxGeometry x="279.36962750716333" y="60" width="100.57306590257879" height="30" as="geometry" />
        </mxCell>
        <mxCell id="azY0l1WAuqeX0dvuz0EE-54" value="igb_uio" style="text;whiteSpace=wrap;fontStyle=1" vertex="1" parent="azY0l1WAuqeX0dvuz0EE-87">
          <mxGeometry x="289.4269340974212" y="5" width="100.57306590257879" height="30" as="geometry" />
        </mxCell>
        <mxCell id="azY0l1WAuqeX0dvuz0EE-55" value="" style="endArrow=classic;html=1;rounded=0;entryX=0;entryY=0.5;entryDx=0;entryDy=0;" edge="1" parent="azY0l1WAuqeX0dvuz0EE-87" target="azY0l1WAuqeX0dvuz0EE-51">
          <mxGeometry width="50" height="50" relative="1" as="geometry">
            <mxPoint x="100.57306590257879" y="40" as="sourcePoint" />
            <mxPoint x="156.44699140401147" y="-10" as="targetPoint" />
            <Array as="points">
              <mxPoint x="156.44699140401147" y="40" />
              <mxPoint x="156.44699140401147" y="20" />
            </Array>
          </mxGeometry>
        </mxCell>
        <mxCell id="azY0l1WAuqeX0dvuz0EE-56" value="" style="endArrow=classic;html=1;rounded=0;" edge="1" parent="azY0l1WAuqeX0dvuz0EE-87">
          <mxGeometry width="50" height="50" relative="1" as="geometry">
            <mxPoint x="156.44699140401147" y="40" as="sourcePoint" />
            <mxPoint x="189.97134670487105" y="70" as="targetPoint" />
            <Array as="points">
              <mxPoint x="156.44699140401147" y="70" />
            </Array>
          </mxGeometry>
        </mxCell>
        <mxCell id="azY0l1WAuqeX0dvuz0EE-88" value="" style="group;fillColor=#f5f5f5;fontColor=#333333;strokeColor=#666666;" vertex="1" connectable="0" parent="1">
          <mxGeometry x="620" y="770" width="354.33" height="148" as="geometry" />
        </mxCell>
        <mxCell id="azY0l1WAuqeX0dvuz0EE-34" value="DPDK" style="rounded=1;whiteSpace=wrap;html=1;fontStyle=1;" vertex="1" parent="azY0l1WAuqeX0dvuz0EE-88">
          <mxGeometry x="10" y="61" width="80" height="39" as="geometry" />
        </mxCell>
        <mxCell id="azY0l1WAuqeX0dvuz0EE-69" value="" style="edgeStyle=orthogonalEdgeStyle;rounded=0;orthogonalLoop=1;jettySize=auto;html=1;fillColor=#f5f5f5;strokeColor=#666666;" edge="1" parent="azY0l1WAuqeX0dvuz0EE-88" source="azY0l1WAuqeX0dvuz0EE-58" target="azY0l1WAuqeX0dvuz0EE-67">
          <mxGeometry relative="1" as="geometry" />
        </mxCell>
        <mxCell id="azY0l1WAuqeX0dvuz0EE-58" value="&lt;font&gt;VFIO&lt;/font&gt;" style="rounded=1;whiteSpace=wrap;html=1;fontStyle=1;" vertex="1" parent="azY0l1WAuqeX0dvuz0EE-88">
          <mxGeometry x="172" width="70" height="40" as="geometry" />
        </mxCell>
        <mxCell id="azY0l1WAuqeX0dvuz0EE-59" value="&lt;font&gt;igb_uio&lt;/font&gt;" style="rounded=1;whiteSpace=wrap;html=1;fontStyle=1;" vertex="1" parent="azY0l1WAuqeX0dvuz0EE-88">
          <mxGeometry x="172" y="56" width="70" height="40" as="geometry" />
        </mxCell>
        <mxCell id="azY0l1WAuqeX0dvuz0EE-67" value="&lt;font&gt;iommu&lt;/font&gt;" style="rounded=1;whiteSpace=wrap;html=1;fontStyle=1;" vertex="1" parent="azY0l1WAuqeX0dvuz0EE-88">
          <mxGeometry x="284.33" width="70" height="40" as="geometry" />
        </mxCell>
        <mxCell id="azY0l1WAuqeX0dvuz0EE-81" value="&lt;font&gt;vhostuser&lt;/font&gt;" style="rounded=1;whiteSpace=wrap;html=1;fontStyle=1;" vertex="1" parent="azY0l1WAuqeX0dvuz0EE-88">
          <mxGeometry x="172" y="108" width="70" height="40" as="geometry" />
        </mxCell>
        <mxCell id="azY0l1WAuqeX0dvuz0EE-83" value="" style="endArrow=classic;html=1;rounded=0;fillColor=#f5f5f5;strokeColor=#666666;" edge="1" parent="azY0l1WAuqeX0dvuz0EE-88">
          <mxGeometry width="50" height="50" relative="1" as="geometry">
            <mxPoint x="91" y="77" as="sourcePoint" />
            <mxPoint x="172" y="17" as="targetPoint" />
            <Array as="points">
              <mxPoint x="141" y="77" />
              <mxPoint x="141" y="17" />
            </Array>
          </mxGeometry>
        </mxCell>
        <mxCell id="azY0l1WAuqeX0dvuz0EE-84" value="" style="endArrow=classic;html=1;rounded=0;fillColor=#f5f5f5;strokeColor=#666666;" edge="1" parent="azY0l1WAuqeX0dvuz0EE-88">
          <mxGeometry width="50" height="50" relative="1" as="geometry">
            <mxPoint x="141" y="76" as="sourcePoint" />
            <mxPoint x="171" y="126" as="targetPoint" />
            <Array as="points">
              <mxPoint x="141" y="126" />
            </Array>
          </mxGeometry>
        </mxCell>
        <mxCell id="azY0l1WAuqeX0dvuz0EE-85" value="" style="endArrow=classic;html=1;rounded=0;entryX=0;entryY=0.5;entryDx=0;entryDy=0;fillColor=#f5f5f5;strokeColor=#666666;" edge="1" parent="azY0l1WAuqeX0dvuz0EE-88" target="azY0l1WAuqeX0dvuz0EE-59">
          <mxGeometry width="50" height="50" relative="1" as="geometry">
            <mxPoint x="141" y="76" as="sourcePoint" />
            <mxPoint x="371" y="56" as="targetPoint" />
          </mxGeometry>
        </mxCell>
        <mxCell id="azY0l1WAuqeX0dvuz0EE-89" value="" style="group;fillColor=#f5f5f5;fontColor=#333333;strokeColor=#666666;" vertex="1" connectable="0" parent="1">
          <mxGeometry x="621" y="1040" width="353.33" height="150" as="geometry" />
        </mxCell>
        <mxCell id="azY0l1WAuqeX0dvuz0EE-57" value="spdk" style="rounded=1;whiteSpace=wrap;html=1;fontStyle=1;fontSize=14;" vertex="1" parent="azY0l1WAuqeX0dvuz0EE-89">
          <mxGeometry x="10" y="60" width="80" height="40" as="geometry" />
        </mxCell>
        <mxCell id="azY0l1WAuqeX0dvuz0EE-75" value="" style="edgeStyle=orthogonalEdgeStyle;rounded=0;orthogonalLoop=1;jettySize=auto;html=1;fillColor=#f5f5f5;strokeColor=#666666;" edge="1" parent="azY0l1WAuqeX0dvuz0EE-89" source="azY0l1WAuqeX0dvuz0EE-76" target="azY0l1WAuqeX0dvuz0EE-80">
          <mxGeometry relative="1" as="geometry" />
        </mxCell>
        <mxCell id="azY0l1WAuqeX0dvuz0EE-76" value="&lt;font&gt;VFIO&lt;/font&gt;" style="rounded=1;whiteSpace=wrap;html=1;fontStyle=1;" vertex="1" parent="azY0l1WAuqeX0dvuz0EE-89">
          <mxGeometry x="171" width="70" height="40" as="geometry" />
        </mxCell>
        <mxCell id="azY0l1WAuqeX0dvuz0EE-77" value="&lt;font&gt;UIO&lt;/font&gt;" style="rounded=1;whiteSpace=wrap;html=1;fontStyle=1;" vertex="1" parent="azY0l1WAuqeX0dvuz0EE-89">
          <mxGeometry x="171" y="56" width="70" height="40" as="geometry" />
        </mxCell>
        <mxCell id="azY0l1WAuqeX0dvuz0EE-78" value="" style="endArrow=classic;html=1;rounded=0;entryX=0;entryY=0.5;entryDx=0;entryDy=0;exitX=1;exitY=0.5;exitDx=0;exitDy=0;fillColor=#f5f5f5;strokeColor=#666666;" edge="1" parent="azY0l1WAuqeX0dvuz0EE-89" target="azY0l1WAuqeX0dvuz0EE-76" source="azY0l1WAuqeX0dvuz0EE-57">
          <mxGeometry width="50" height="50" relative="1" as="geometry">
            <mxPoint x="91" y="40" as="sourcePoint" />
            <mxPoint x="141" y="-10" as="targetPoint" />
            <Array as="points">
              <mxPoint x="141" y="80" />
              <mxPoint x="141" y="20" />
            </Array>
          </mxGeometry>
        </mxCell>
        <mxCell id="azY0l1WAuqeX0dvuz0EE-79" value="" style="endArrow=classic;html=1;rounded=0;fillColor=#f5f5f5;strokeColor=#666666;" edge="1" parent="azY0l1WAuqeX0dvuz0EE-89">
          <mxGeometry width="50" height="50" relative="1" as="geometry">
            <mxPoint x="141" y="70" as="sourcePoint" />
            <mxPoint x="171" y="130" as="targetPoint" />
            <Array as="points">
              <mxPoint x="141" y="130" />
            </Array>
          </mxGeometry>
        </mxCell>
        <mxCell id="azY0l1WAuqeX0dvuz0EE-80" value="&lt;font&gt;iommu&lt;/font&gt;" style="rounded=1;whiteSpace=wrap;html=1;fontStyle=1;" vertex="1" parent="azY0l1WAuqeX0dvuz0EE-89">
          <mxGeometry x="283.33" width="70" height="40" as="geometry" />
        </mxCell>
        <mxCell id="azY0l1WAuqeX0dvuz0EE-82" value="&lt;font&gt;vhostuser&lt;/font&gt;" style="rounded=1;whiteSpace=wrap;html=1;fontStyle=1;" vertex="1" parent="azY0l1WAuqeX0dvuz0EE-89">
          <mxGeometry x="171" y="110" width="70" height="40" as="geometry" />
        </mxCell>
        <mxCell id="azY0l1WAuqeX0dvuz0EE-98" value="" style="group;fillColor=#f5f5f5;fontColor=#333333;strokeColor=#666666;" vertex="1" connectable="0" parent="1">
          <mxGeometry x="79" y="770" width="390" height="290" as="geometry" />
        </mxCell>
        <mxCell id="azY0l1WAuqeX0dvuz0EE-35" value="VFIO" style="rounded=1;whiteSpace=wrap;html=1;fontStyle=1;" vertex="1" parent="azY0l1WAuqeX0dvuz0EE-98">
          <mxGeometry x="10" y="110" width="79" height="50" as="geometry" />
        </mxCell>
        <mxCell id="azY0l1WAuqeX0dvuz0EE-36" value="GPU" style="rounded=1;whiteSpace=wrap;html=1;fontStyle=1;" vertex="1" parent="azY0l1WAuqeX0dvuz0EE-98">
          <mxGeometry x="200" width="70" height="40" as="geometry" />
        </mxCell>
        <mxCell id="azY0l1WAuqeX0dvuz0EE-37" value="网卡" style="rounded=1;whiteSpace=wrap;html=1;fontStyle=1;" vertex="1" parent="azY0l1WAuqeX0dvuz0EE-98">
          <mxGeometry x="200" y="51" width="70" height="40" as="geometry" />
        </mxCell>
        <mxCell id="azY0l1WAuqeX0dvuz0EE-38" value="Nvme" style="rounded=1;whiteSpace=wrap;html=1;fontStyle=1;" vertex="1" parent="azY0l1WAuqeX0dvuz0EE-98">
          <mxGeometry x="200" y="102" width="70" height="40" as="geometry" />
        </mxCell>
        <mxCell id="azY0l1WAuqeX0dvuz0EE-39" value="SR-IOV" style="rounded=1;whiteSpace=wrap;html=1;fontStyle=1;" vertex="1" parent="azY0l1WAuqeX0dvuz0EE-98">
          <mxGeometry x="200" y="150" width="70" height="40" as="geometry" />
        </mxCell>
        <mxCell id="azY0l1WAuqeX0dvuz0EE-40" value="DPDK" style="rounded=1;whiteSpace=wrap;html=1;fontStyle=1;" vertex="1" parent="azY0l1WAuqeX0dvuz0EE-98">
          <mxGeometry x="200" y="200" width="70" height="40" as="geometry" />
        </mxCell>
        <mxCell id="azY0l1WAuqeX0dvuz0EE-41" value="" style="endArrow=classic;html=1;rounded=0;entryX=0;entryY=0.5;entryDx=0;entryDy=0;fontStyle=1;fillColor=#f5f5f5;strokeColor=#666666;" edge="1" parent="azY0l1WAuqeX0dvuz0EE-98" target="azY0l1WAuqeX0dvuz0EE-36">
          <mxGeometry width="50" height="50" relative="1" as="geometry">
            <mxPoint x="90" y="140" as="sourcePoint" />
            <mxPoint x="140" y="30" as="targetPoint" />
            <Array as="points">
              <mxPoint x="170" y="140" />
              <mxPoint x="170" y="70" />
              <mxPoint x="170" y="20" />
            </Array>
          </mxGeometry>
        </mxCell>
        <mxCell id="azY0l1WAuqeX0dvuz0EE-42" value="" style="endArrow=classic;html=1;rounded=0;entryX=0;entryY=0.5;entryDx=0;entryDy=0;fontStyle=1;fillColor=#f5f5f5;strokeColor=#666666;" edge="1" parent="azY0l1WAuqeX0dvuz0EE-98" target="azY0l1WAuqeX0dvuz0EE-43">
          <mxGeometry width="50" height="50" relative="1" as="geometry">
            <mxPoint x="170" y="140" as="sourcePoint" />
            <mxPoint x="150" y="250" as="targetPoint" />
            <Array as="points">
              <mxPoint x="170" y="220" />
              <mxPoint x="170" y="270" />
            </Array>
          </mxGeometry>
        </mxCell>
        <mxCell id="azY0l1WAuqeX0dvuz0EE-43" value="SPDK" style="rounded=1;whiteSpace=wrap;html=1;fontStyle=1;" vertex="1" parent="azY0l1WAuqeX0dvuz0EE-98">
          <mxGeometry x="200" y="250" width="70" height="40" as="geometry" />
        </mxCell>
        <mxCell id="azY0l1WAuqeX0dvuz0EE-44" value="" style="endArrow=classic;html=1;rounded=0;entryX=0;entryY=0.5;entryDx=0;entryDy=0;fontStyle=1;fillColor=#f5f5f5;strokeColor=#666666;" edge="1" parent="azY0l1WAuqeX0dvuz0EE-98" target="azY0l1WAuqeX0dvuz0EE-37">
          <mxGeometry width="50" height="50" relative="1" as="geometry">
            <mxPoint x="170" y="70" as="sourcePoint" />
            <mxPoint x="420" y="40" as="targetPoint" />
          </mxGeometry>
        </mxCell>
        <mxCell id="azY0l1WAuqeX0dvuz0EE-45" value="" style="endArrow=classic;html=1;rounded=0;fontStyle=1;fillColor=#f5f5f5;strokeColor=#666666;" edge="1" parent="azY0l1WAuqeX0dvuz0EE-98">
          <mxGeometry width="50" height="50" relative="1" as="geometry">
            <mxPoint x="170" y="122" as="sourcePoint" />
            <mxPoint x="200" y="122" as="targetPoint" />
          </mxGeometry>
        </mxCell>
        <mxCell id="azY0l1WAuqeX0dvuz0EE-46" value="" style="endArrow=classic;html=1;rounded=0;entryX=0;entryY=0.5;entryDx=0;entryDy=0;fontStyle=1;fillColor=#f5f5f5;strokeColor=#666666;" edge="1" parent="azY0l1WAuqeX0dvuz0EE-98">
          <mxGeometry width="50" height="50" relative="1" as="geometry">
            <mxPoint x="170" y="170" as="sourcePoint" />
            <mxPoint x="202" y="170" as="targetPoint" />
          </mxGeometry>
        </mxCell>
        <mxCell id="azY0l1WAuqeX0dvuz0EE-49" value="" style="endArrow=classic;html=1;rounded=0;fontStyle=1;fillColor=#f5f5f5;strokeColor=#666666;" edge="1" parent="azY0l1WAuqeX0dvuz0EE-98">
          <mxGeometry width="50" height="50" relative="1" as="geometry">
            <mxPoint x="171" y="221" as="sourcePoint" />
            <mxPoint x="201" y="221" as="targetPoint" />
          </mxGeometry>
        </mxCell>
        <mxCell id="azY0l1WAuqeX0dvuz0EE-91" value="NFV" style="rounded=1;whiteSpace=wrap;html=1;fontStyle=1;" vertex="1" parent="azY0l1WAuqeX0dvuz0EE-98">
          <mxGeometry x="320" y="152" width="60" height="40" as="geometry" />
        </mxCell>
        <mxCell id="azY0l1WAuqeX0dvuz0EE-93" value="" style="endArrow=classic;html=1;rounded=0;fontStyle=1;entryX=0;entryY=0.5;entryDx=0;entryDy=0;fillColor=#f5f5f5;strokeColor=#666666;" edge="1" parent="azY0l1WAuqeX0dvuz0EE-98" target="azY0l1WAuqeX0dvuz0EE-91">
          <mxGeometry width="50" height="50" relative="1" as="geometry">
            <mxPoint x="270" y="172" as="sourcePoint" />
            <mxPoint x="300" y="172" as="targetPoint" />
          </mxGeometry>
        </mxCell>
        <mxCell id="azY0l1WAuqeX0dvuz0EE-113" value="" style="group;fillColor=#f5f5f5;strokeColor=#666666;fontColor=#333333;" vertex="1" connectable="0" parent="1">
          <mxGeometry x="621" y="334" width="281" height="146" as="geometry" />
        </mxCell>
        <mxCell id="azY0l1WAuqeX0dvuz0EE-97" value="underlay" style="rounded=1;whiteSpace=wrap;html=1;fontStyle=1;" vertex="1" parent="azY0l1WAuqeX0dvuz0EE-113">
          <mxGeometry x="10" y="54.5" width="80" height="45.5" as="geometry" />
        </mxCell>
        <mxCell id="azY0l1WAuqeX0dvuz0EE-99" value="" style="endArrow=classic;html=1;rounded=0;entryX=0;entryY=0.5;entryDx=0;entryDy=0;fillColor=#dae8fc;strokeColor=#6c8ebf;" edge="1" parent="azY0l1WAuqeX0dvuz0EE-113" target="azY0l1WAuqeX0dvuz0EE-100">
          <mxGeometry width="50" height="50" relative="1" as="geometry">
            <mxPoint x="90" y="74" as="sourcePoint" />
            <mxPoint x="190" y="-1" as="targetPoint" />
            <Array as="points">
              <mxPoint x="120" y="74" />
              <mxPoint x="150" y="74" />
              <mxPoint x="150" y="15" />
            </Array>
          </mxGeometry>
        </mxCell>
        <mxCell id="azY0l1WAuqeX0dvuz0EE-100" value="Bridge&lt;div&gt;OVS&lt;/div&gt;" style="rounded=1;whiteSpace=wrap;html=1;fontStyle=1;" vertex="1" parent="azY0l1WAuqeX0dvuz0EE-113">
          <mxGeometry x="190" width="80" height="30" as="geometry" />
        </mxCell>
        <mxCell id="azY0l1WAuqeX0dvuz0EE-101" value="vlan" style="rounded=1;whiteSpace=wrap;html=1;fontStyle=1;" vertex="1" parent="azY0l1WAuqeX0dvuz0EE-113">
          <mxGeometry x="190" y="60" width="80" height="30" as="geometry" />
        </mxCell>
        <mxCell id="azY0l1WAuqeX0dvuz0EE-103" value="tap" style="rounded=1;whiteSpace=wrap;html=1;fontStyle=1;" vertex="1" parent="azY0l1WAuqeX0dvuz0EE-113">
          <mxGeometry x="191" y="118" width="79" height="24" as="geometry" />
        </mxCell>
        <mxCell id="azY0l1WAuqeX0dvuz0EE-104" value="" style="endArrow=classic;html=1;rounded=0;entryX=0;entryY=0.5;entryDx=0;entryDy=0;fillColor=#dae8fc;strokeColor=#6c8ebf;" edge="1" parent="azY0l1WAuqeX0dvuz0EE-113" target="azY0l1WAuqeX0dvuz0EE-103">
          <mxGeometry width="50" height="50" relative="1" as="geometry">
            <mxPoint x="150" y="70" as="sourcePoint" />
            <mxPoint x="210" y="160" as="targetPoint" />
            <Array as="points">
              <mxPoint x="150" y="130" />
            </Array>
          </mxGeometry>
        </mxCell>
        <mxCell id="azY0l1WAuqeX0dvuz0EE-105" value="" style="endArrow=classic;html=1;rounded=0;fillColor=#dae8fc;strokeColor=#6c8ebf;" edge="1" parent="azY0l1WAuqeX0dvuz0EE-113">
          <mxGeometry width="50" height="50" relative="1" as="geometry">
            <mxPoint x="150" y="74" as="sourcePoint" />
            <mxPoint x="190" y="74" as="targetPoint" />
          </mxGeometry>
        </mxCell>
        <mxCell id="azY0l1WAuqeX0dvuz0EE-115" value="" style="group;fillColor=#f5f5f5;strokeColor=#666666;fontColor=#333333;" vertex="1" connectable="0" parent="1">
          <mxGeometry x="620" y="570" width="281" height="146" as="geometry" />
        </mxCell>
        <mxCell id="azY0l1WAuqeX0dvuz0EE-106" value="overlay" style="rounded=1;whiteSpace=wrap;html=1;fontStyle=1" vertex="1" parent="azY0l1WAuqeX0dvuz0EE-115">
          <mxGeometry x="10" y="54.5" width="80" height="45.5" as="geometry" />
        </mxCell>
        <mxCell id="azY0l1WAuqeX0dvuz0EE-107" value="" style="endArrow=classic;html=1;rounded=0;entryX=0;entryY=0.5;entryDx=0;entryDy=0;" edge="1" parent="azY0l1WAuqeX0dvuz0EE-115" target="azY0l1WAuqeX0dvuz0EE-108">
          <mxGeometry width="50" height="50" relative="1" as="geometry">
            <mxPoint x="90" y="74" as="sourcePoint" />
            <mxPoint x="190" y="-1" as="targetPoint" />
            <Array as="points">
              <mxPoint x="120" y="74" />
              <mxPoint x="150" y="74" />
              <mxPoint x="150" y="15" />
            </Array>
          </mxGeometry>
        </mxCell>
        <mxCell id="azY0l1WAuqeX0dvuz0EE-108" value="Bridge&lt;div&gt;OVS&lt;/div&gt;" style="rounded=1;whiteSpace=wrap;html=1;fontStyle=1" vertex="1" parent="azY0l1WAuqeX0dvuz0EE-115">
          <mxGeometry x="190" width="90" height="30" as="geometry" />
        </mxCell>
        <mxCell id="azY0l1WAuqeX0dvuz0EE-109" value="隧道" style="rounded=1;whiteSpace=wrap;html=1;fontStyle=1" vertex="1" parent="azY0l1WAuqeX0dvuz0EE-115">
          <mxGeometry x="190" y="60" width="90" height="30" as="geometry" />
        </mxCell>
        <mxCell id="azY0l1WAuqeX0dvuz0EE-110" value="tap" style="rounded=1;whiteSpace=wrap;html=1;fontStyle=1" vertex="1" parent="azY0l1WAuqeX0dvuz0EE-115">
          <mxGeometry x="191" y="116" width="90" height="30" as="geometry" />
        </mxCell>
        <mxCell id="azY0l1WAuqeX0dvuz0EE-111" value="" style="endArrow=classic;html=1;rounded=0;entryX=0;entryY=0.5;entryDx=0;entryDy=0;" edge="1" parent="azY0l1WAuqeX0dvuz0EE-115" target="azY0l1WAuqeX0dvuz0EE-110">
          <mxGeometry width="50" height="50" relative="1" as="geometry">
            <mxPoint x="150" y="70" as="sourcePoint" />
            <mxPoint x="210" y="160" as="targetPoint" />
            <Array as="points">
              <mxPoint x="150" y="130" />
            </Array>
          </mxGeometry>
        </mxCell>
        <mxCell id="azY0l1WAuqeX0dvuz0EE-112" value="" style="endArrow=classic;html=1;rounded=0;" edge="1" parent="azY0l1WAuqeX0dvuz0EE-115">
          <mxGeometry width="50" height="50" relative="1" as="geometry">
            <mxPoint x="150" y="74" as="sourcePoint" />
            <mxPoint x="190" y="74" as="targetPoint" />
          </mxGeometry>
        </mxCell>
      </root>
    </mxGraphModel>
  </diagram>
</mxfile>
